# xmcd
#
# Track frame offsets: 
#        150
#        26822
#        45493
#        72190
#        96450
#        125432
#        147390
#        173031
#        188328
#        206789
#        228931
#        250145
#        279693
#        303075
#        320296
#
# Disc length: 4702 seconds
#
# Revision: 4
# Processed by: cddbd v1.5.2PL0 Copyright (c) Steve Scherf et al.
# Submitted via: ExactAudioCopy v0.99pb5
#
DISCID=d1125c0f
DTITLE=Various Artist - Nu Jazz Anthology CD.01- The Godfathers
DYEAR=2007
DGENRE=Nu-Jazz
TTITLE0=DJ Cam - Summer in Paris
TTITLE1=Jazzanova feat Clara Hill - No Use
TTITLE2=Kruder and Dorfmeister - High Noon
TTITLE3=De-Phazz - Pressurized
TTITLE4=Bugge Wesseltoft feat Sidsel Endresen - You Might Say
TTITLE5=4 Hero aka Tek 9 - We're Gettin' Down
TTITLE6=Matthew Herbert feat Dani Siciliano - Suddenly
TTITLE7=Mr Scruff - Get A Move On
TTITLE8=Nicola Conte - Fuoco Fatuo
TTITLE9=Grand Tourism feat Terry Callier - Les Curants d'Air
TTITLE10=Nick Holder - Sometime I'm Blue
TTITLE11=The Cinematic Orchestra feat Fontella Bass - Evolution
TTITLE12=Truby Trio feat Joseph Malik - High Jazz [Nicole Conte Remix]
TTITLE13=Tosca - Pyjama
TTITLE14=Gotan Project meets Chet Baker - Round About Midnight
EXTD=
EXTT0=
EXTT1=
EXTT2=
EXTT3=
EXTT4=
EXTT5=
EXTT6=
EXTT7=
EXTT8=
EXTT9=
EXTT10=
EXTT11=
EXTT12=
EXTT13=
EXTT14=
PLAYORDER=
